<svg xmlns="http://www.w3.org/2000/svg" width="480" height="720" viewBox="0 0 480 720" role="img" aria-labelledby="title desc">
  <title id="title">Interstellar poster</title>
  <desc id="desc">Original vector poster with a black hole, spacecraft silhouette, and distant horizon.</desc>
  <defs>
    <radialGradient id="space" cx="50%" cy="28%" r="76%">
      <stop offset="0" stop-color="#243a58"/>
      <stop offset="0.42" stop-color="#0e1628"/>
      <stop offset="1" stop-color="#03050b"/>
    </radialGradient>
    <radialGradient id="ring" cx="50%" cy="43%" r="52%">
      <stop offset="0.42" stop-color="#06070b"/>
      <stop offset="0.48" stop-color="#efd08a"/>
      <stop offset="0.56" stop-color="#8f4f25"/>
      <stop offset="0.66" stop-color="#10131c" stop-opacity="0"/>
    </radialGradient>
    <linearGradient id="ice" x1="0" x2="0" y1="0" y2="1">
      <stop offset="0" stop-color="#d7e8f4"/>
      <stop offset="0.55" stop-color="#6e8398"/>
      <stop offset="1" stop-color="#171c28"/>
    </linearGradient>
    <filter id="warmBlur" x="-30%" y="-30%" width="160%" height="160%">
      <feGaussianBlur stdDeviation="7"/>
    </filter>
  </defs>
  <rect width="480" height="720" fill="url(#space)"/>
  <g fill="#ffffff">
    <circle cx="58" cy="86" r="1.5" opacity="0.8"/>
    <circle cx="105" cy="142" r="1" opacity="0.7"/>
    <circle cx="173" cy="70" r="1.2" opacity="0.75"/>
    <circle cx="348" cy="108" r="1.4" opacity="0.8"/>
    <circle cx="417" cy="174" r="1" opacity="0.62"/>
    <circle cx="386" cy="58" r="0.9" opacity="0.58"/>
    <circle cx="72" cy="239" r="1" opacity="0.55"/>
    <circle cx="429" cy="280" r="1.2" opacity="0.68"/>
  </g>
  <ellipse cx="240" cy="288" rx="160" ry="78" fill="#f4d58b" opacity="0.34" filter="url(#warmBlur)"/>
  <ellipse cx="240" cy="288" rx="168" ry="52" fill="none" stroke="#f3cc7b" stroke-width="12" opacity="0.88"/>
  <ellipse cx="240" cy="288" rx="116" ry="116" fill="url(#ring)"/>
  <circle cx="240" cy="288" r="58" fill="#010207"/>
  <path d="M108 418c67-37 197-41 264 0v70H108z" fill="url(#ice)" opacity="0.92"/>
  <path d="M80 489h320l42 108H38z" fill="#e7eef2" opacity="0.9"/>
  <path d="M78 520c108 28 218 28 324 0" stroke="#9fb2bf" stroke-width="4" fill="none" opacity="0.65"/>
  <path d="M132 448l74-20 35 13 77-16 54 21-95 14-31-11-114 18z" fill="#0b0f19"/>
  <path d="M222 392l22-50 20 50 53 20-53 18-20 52-22-52-53-18z" fill="#d7e8f4" opacity="0.9"/>
  <path d="M244 348v128M179 412h130" stroke="#101827" stroke-width="5" stroke-linecap="round"/>
  <text x="240" y="618" text-anchor="middle" fill="#f8f1df" font-family="Arial Black, Arial, sans-serif" font-size="45" font-weight="900">INTERSTELLAR</text>
  <text x="240" y="650" text-anchor="middle" fill="#b9cde0" font-family="Arial, sans-serif" font-size="17" letter-spacing="4">2014</text>
</svg>
